<svg xmlns="http://www.w3.org/2000/svg" width="20.921" height="13.304" viewBox="0 0 20.921 13.304">
  <g id="Group_16" data-name="Group 16" transform="translate(-302.23 -496.617)">
    <path id="Path_366" data-name="Path 366" d="M313.359,498.362l-1.815,1.72a3.787,3.787,0,0,0-1.027-.693,4.054,4.054,0,0,0-3.691.239,4.287,4.287,0,0,0-1.5,1.54,4.217,4.217,0,0,0,0,4.2,4.188,4.188,0,0,0,1.5,1.529,3.966,3.966,0,0,0,2.066.561,4.04,4.04,0,0,0,2.1-.525,3.365,3.365,0,0,0,1.194-1.17,2.954,2.954,0,0,0,.478-1.17h-3.774V502.3h6.282a4.6,4.6,0,0,1,.1,1.122,6.906,6.906,0,0,1-.8,3.356,5.84,5.84,0,0,1-2.246,2.3,6.868,6.868,0,0,1-6.675-.06,6.635,6.635,0,0,1-2.412-2.4,6.549,6.549,0,0,1-.908-3.368,6.427,6.427,0,0,1,.908-3.344,6.634,6.634,0,0,1,2.412-2.4,6.494,6.494,0,0,1,3.344-.9A6.369,6.369,0,0,1,313.359,498.362Zm7.881,2.054V502.3h1.91v1.91h-1.91V506.1H319.33v-1.887h-1.887V502.3h1.887v-1.887Z" transform="translate(0 0)" fill="#df7b7b"/>
  </g>
</svg>
